<?xml version="1.0"?>
<svg xmlns="http://www.w3.org/2000/svg" xmlns:xlink="http://www.w3.org/1999/xlink" version="1.1" id="Capa_1" x="0px" y="0px" viewBox="0 0 512 512" style="enable-background:new 0 0 512 512;" xml:space="preserve" width="512px" height="512px" class=""><g><g>
	<g>
		<path d="M454.773,375.483c-8.143-14.111-20.159-23.29-35.714-27.279c-3.716-0.953-7.461-1.551-11.177-1.788    c0.48-5.345,0.73-10.73,0.73-16.106c0-6.824-0.391-13.656-1.166-20.423c27.647-3.783,48.974-26.763,48.974-54.46    c0-30.329-25.581-55.005-57.024-55.005c-3.084,0-6.128,0.248-9.117,0.709c6.464-15.569,10.023-32.542,10.023-50.298    c0-11.544-1.495-22.936-4.454-33.993c22.685-9.582,37.781-31.292,37.781-55.848C433.63,27.361,405.243,0,370.351,0    c-21.271,0-40.957,10.358-52.583,27.05c-18.524-8.188-38.867-12.481-59.393-12.481s-40.869,4.293-59.393,12.481    C187.354,10.358,167.667,0,146.396,0c-34.893,0-63.281,27.362-63.281,60.994c0,24.557,15.098,46.267,37.783,55.849    c-2.959,11.06-4.455,22.453-4.455,33.992c0,17.756,3.56,34.728,10.023,50.298c-2.989-0.461-6.032-0.709-9.116-0.709    c-31.444,0-57.025,24.675-57.025,55.005c0,27.695,21.33,50.674,48.974,54.46c-0.775,6.771-1.167,13.605-1.167,20.423    c0,5.524,0.265,11.055,0.772,16.546c-0.386-0.008-0.771-0.02-1.159-0.02c-4.894,0-9.874,0.641-14.804,1.904    c-15.555,3.989-27.57,13.166-35.714,27.278c-14.095,24.426-13.358,60.525-6.376,85.467C59.18,491.229,87.31,512,119.262,512    c1.339,0,2.68-0.044,4.018-0.118c0.058-0.001,0.115-0.001,0.173-0.004c0.088-0.004,0.176-0.012,0.264-0.017    c0.104-0.006,0.207-0.013,0.31-0.02c26.193-1.425,49.252-16.886,60.158-39.198c22.542,13.977,47.94,21.305,74.186,21.305    c25.056,0,49.464-6.747,71.286-19.581c0.352,0.658,0.698,1.319,1.073,1.969c9.434,16.347,24.962,28,43.722,32.811    c5.986,1.535,12.138,2.315,18.283,2.315c31.952,0,60.082-20.772,68.408-50.513C468.131,436.008,468.867,399.908,454.773,375.483z     M103.121,60.994c0-22.601,19.413-40.989,43.275-40.989c17.07,0,32.595,9.549,39.551,24.328c1.162,2.469,3.283,4.355,5.869,5.223    c2.587,0.867,5.415,0.64,7.832-0.628c17.879-9.391,38.186-14.354,58.724-14.354c20.539,0,40.845,4.963,58.724,14.354    c2.416,1.269,5.246,1.496,7.832,0.628c2.587-0.868,4.707-2.755,5.869-5.223c6.957-14.779,22.481-24.328,39.552-24.328    c23.862,0,43.275,18.387,43.275,40.989c0,15.991-9.727,30.21-24.466,36.928c-2.376-5.411-5.11-10.68-8.184-15.741    c-2.869-4.721-9.019-6.222-13.741-3.356c-4.721,2.868-6.224,9.02-3.356,13.741c4.079,6.715,7.464,13.851,10.06,21.212    c0.063,0.18,0.137,0.352,0.209,0.526c4.075,11.745,6.15,24.03,6.15,36.531c0,60.894-49.354,110.999-111.923,115.868v-74.374    c14.48-4.959,24.708-20.001,24.708-33.281c0-7.282-3.382-24.22-34.71-24.22c-31.328,0-34.71,16.938-34.71,24.22    c0,13.28,10.227,28.322,24.708,33.281v74.374c-62.568-4.868-111.923-54.973-111.923-115.868c0-12.684,2.129-25.156,6.329-37.07    c0.941-2.67,0.707-5.612-0.645-8.1c-1.351-2.488-3.693-4.285-6.445-4.949C116.512,96.094,103.121,79.759,103.121,60.994z     M258.374,344.078c-5.524,0-10.002,4.478-10.002,10.002v30.317c-33.885-4.87-60.014-34.08-60.014-69.291    c0-14.252,4.37-28.112,12.399-39.752c17.617,7.544,37.115,11.746,57.617,11.746s40-4.202,57.618-11.746    c8.029,11.641,12.4,25.5,12.4,39.752c0,35.21-26.13,64.421-60.014,69.291V354.08C268.376,348.556,263.898,344.078,258.374,344.078    z M243.669,159.048c0-0.975,0-1.379,1.653-2.193c1.533-0.755,5.268-2.021,13.052-2.021c7.784,0,11.519,1.267,13.052,2.021    c1.653,0.814,1.653,1.218,1.653,2.193c0,5.638-6.874,14.967-14.706,14.967C250.541,174.014,243.669,164.686,243.669,159.048z     M163.943,466.876c-6.722,11.647-17.861,19.969-31.365,23.432c-3.269,0.838-6.602,1.366-9.946,1.579    c-0.009,0-0.018,0.001-0.026,0.002c-1.113,0.07-2.227,0.105-3.34,0.105c-23.018,0.001-43.227-14.763-49.147-35.902    c-5.664-20.231-6.691-50.788,4.438-70.075c5.428-9.405,13.067-15.261,23.356-17.899c3.307-0.848,6.616-1.278,9.834-1.278    c3.383,0,6.666,0.469,9.839,1.335c0.15,0.046,0.299,0.092,0.452,0.131c25.767,7.364,44.264,40.925,50.447,63.013    C171.85,443.341,170.237,455.969,163.943,466.876z M324.253,425.388c-2.751,9.826-3.179,19.927-1.379,29.687    c-19.594,12.352-41.751,18.868-64.499,18.868c-24.465,0-48.109-7.464-68.722-21.628c1.15-8.725,0.54-17.665-1.902-26.388    c-7.281-26.007-27.781-62.385-58.238-74.765c-0.908-6.882-1.372-13.87-1.372-20.852c0-9.466,0.848-18.962,2.522-28.223    c0.549-3.039-0.335-6.159-2.397-8.458c-2.062-2.299-5.071-3.518-8.148-3.299c-0.917,0.065-1.846,0.097-2.763,0.097    c-20.413,0-37.02-15.702-37.02-35.001c0-19.299,16.607-35,37.02-35c9.765,0,18.946,3.56,25.908,10.02    c10.676,14.189,24.123,26.333,39.574,35.698c-9.401,14.508-14.482,31.512-14.482,48.962c0,49.638,40.384,90.021,90.021,90.021    s90.021-40.384,90.021-90.021c0-17.45-5.081-34.453-14.482-48.962c15.452-9.364,28.899-21.508,39.574-35.698    c6.963-6.462,16.144-10.02,25.909-10.02c20.412,0,37.019,15.701,37.019,35s-16.607,35.001-37.019,35.001    c-0.916,0-1.847-0.033-2.766-0.097c-3.078-0.219-6.087,1-8.149,3.299c-2.06,2.299-2.946,5.42-2.397,8.459    c1.673,9.25,2.522,18.745,2.522,28.221c0,6.194-0.364,12.398-1.078,18.517C354.295,359.029,331.93,397.973,324.253,425.388z     M441.883,455.556c-5.917,21.139-26.126,35.903-49.144,35.903c-4.47,0-8.949-0.567-13.314-1.687    c-13.505-3.463-24.645-11.785-31.365-23.432c-6.294-10.908-7.908-23.536-4.543-35.555c6.512-23.257,26.673-59.232,54.598-63.955    c0.109-0.018,0.218-0.037,0.326-0.058c1.903-0.305,3.842-0.465,5.815-0.465c3.219,0,6.528,0.43,9.834,1.278    c10.288,2.639,17.928,8.493,23.357,17.899C448.575,404.767,447.548,435.325,441.883,455.556z" data-original="#000000" class="active-path" data-old_color="#000000" fill="#FFFFFF"/>
	</g>
</g><g>
	<g>
		<path d="M321.264,113.305c-9.231,0-16.762,7.207-16.762,16.042c0,8.836,7.53,16.043,16.762,16.043    c9.232,0,16.761-7.207,16.761-16.043C338.025,120.512,330.496,113.305,321.264,113.305z" data-original="#000000" class="active-path" data-old_color="#000000" fill="#FFFFFF"/>
	</g>
</g><g>
	<g>
		<path d="M195.485,113.305c-9.232,0-16.762,7.207-16.762,16.042c0,8.836,7.529,16.043,16.762,16.043    c9.231,0,16.761-7.207,16.761-16.043C212.246,120.512,204.716,113.305,195.485,113.305z" data-original="#000000" class="active-path" data-old_color="#000000" fill="#FFFFFF"/>
	</g>
</g><g>
	<g>
		<path d="M360.875,56.578l-0.233-0.231c-3.967-3.844-10.314-3.761-14.159,0.206c-3.845,3.966-3.762,10.283,0.205,14.128    c0.007,0.006,0.054,0.054,0.062,0.061c1.947,1.948,4.494,2.92,7.043,2.92c2.557,0,5.115-0.978,7.072-2.929    C364.771,66.837,364.765,60.492,360.875,56.578z" data-original="#000000" class="active-path" data-old_color="#000000" fill="#FFFFFF"/>
	</g>
</g><g>
	<g>
		<path d="M258.371,315.105c-5.524,0-10.002,4.478-10.002,10.002v0.236c0,5.524,4.478,10.002,10.002,10.002    c5.524,0,10.002-4.478,10.002-10.002v-0.236C268.373,319.583,263.895,315.105,258.371,315.105z" data-original="#000000" class="active-path" data-old_color="#000000" fill="#FFFFFF"/>
	</g>
</g></g> </svg>
